<?xml version="1.0" encoding="UTF-8"?>
<svg xmlns="http://www.w3.org/2000/svg" xmlns:xlink="http://www.w3.org/1999/xlink"
     width="687.5" height="375.0" viewBox="-28.0 0 550 300">
<defs>
</defs>
<path d="M10,25 L25,25" stroke-width="1" stroke="black" stroke-linejoin="miter" fill="none" />
<path d="M10,75 L25,75" stroke-width="1" stroke="black" stroke-linejoin="miter" fill="none" />
<path d="M10,125 L25,125" stroke-width="1" stroke="black" stroke-linejoin="miter" fill="none" />
<path d="M10,175 L25,175" stroke-width="1" stroke="black" stroke-linejoin="miter" fill="none" />
<path d="M10,225 L25,225" stroke-width="1" stroke="black" stroke-linejoin="miter" fill="none" />
<path d="M37.9442,25.0002 C51.653800000000004,25.0002,51.5923,50.0,65.3019,50.0 M65.3038,50.0 C51.59219999999999,50.0,51.6538,74.9998,37.94409999999999,74.9998 M65.3038,49.99999999999999 L87.1884,49.99999999999999 M87.1884,49.99999999999999 C100.9,49.99999999999999,100.83840000000001,25.000199999999992,114.5481,25.000199999999992 M87.1884,49.99999999999999 C100.9,49.99999999999999,100.83840000000001,74.9998,114.5481,74.9998 M25.0,24.999999999999993 L38.0,24.999999999999993 M38.0019,74.9998 L25.0,74.9998 M112.6453,74.9998 L125.0,74.9998 M112.1944,24.999799999999993 L125.0,24.999799999999993" stroke-width="1" stroke="black" stroke-linejoin="miter" fill="none" />
<text x="75" y="38" font-size="7" text-anchor="middle" dy="0em">Θ=2.214297</text>
<path d="M97,53 L107,53 L107,63 L97,63 Z" stroke="black" fill="thistle" stroke-linejoin="miter" />
<text x="102" y="60" font-size="6" text-anchor="middle" dy="0em">Rx</text>
<path d="M25,125 L125,125" stroke="black" stroke-width="1" fill="none" />
<path d="M137.9442,75.0002 C151.6538,75.0002,151.5923,100.0,165.3019,100.0 M165.3038,100.0 C151.5922,100.0,151.6538,124.9998,137.9441,124.9998 M165.3038,100.0 L187.1884,100.0 M187.1884,100.0 C200.9,100.0,200.8384,75.0002,214.5481,75.0002 M187.1884,100.0 C200.9,100.0,200.8384,124.9998,214.5481,124.9998 M125.0,75.0 L138.0,75.0 M138.0019,124.9998 L125.0,124.9998 M212.64530000000002,124.9998 L225.0,124.9998 M212.1944,74.9998 L225.0,74.9998" stroke-width="1" stroke="black" stroke-linejoin="miter" fill="none" />
<text x="175" y="88" font-size="7" text-anchor="middle" dy="0em">Θ=2*pi/3</text>
<path d="M197,103 L207,103 L207,113 L197,113 Z" stroke="black" fill="thistle" stroke-linejoin="miter" />
<text x="202" y="110" font-size="6" text-anchor="middle" dy="0em">Rx</text>
<path d="M25,175 L225,175" stroke="black" stroke-width="1" fill="none" />
<path d="M237.9442,125.0002 C251.6538,125.0002,251.5923,150.0,265.3019,150.0 M265.30379999999997,150.0 C251.59219999999996,150.0,251.65379999999996,174.9998,237.94409999999996,174.9998 M265.30379999999997,150.0 L287.18839999999994,150.0 M287.18839999999994,150.0 C300.9,150.0,300.8384,125.0002,314.5481,125.0002 M287.1884,150.0 C300.9,150.0,300.8384,174.9998,314.5481,174.9998 M224.99999999999997,125.0 L237.99999999999997,125.0 M238.00189999999998,174.9998 L224.99999999999997,174.9998 M312.64529999999996,174.9998 L324.99999999999994,174.9998 M312.1944,124.9998 L325.0,124.9998" stroke-width="1" stroke="black" stroke-linejoin="miter" fill="none" />
<text x="275" y="138" font-size="7" text-anchor="middle" dy="0em">Θ=1.910633</text>
<path d="M297,153 L307,153 L307,163 L297,163 Z" stroke="black" fill="thistle" stroke-linejoin="miter" />
<text x="302" y="160" font-size="6" text-anchor="middle" dy="0em">Rx</text>
<path d="M25,225 L325,225" stroke="black" stroke-width="1" fill="none" />
<path d="M337.9442,175.0002 C351.65380000000005,175.0002,351.5923,200.0,365.30190000000005,200.0 M365.3038,200.0 C351.59220000000005,200.0,351.65380000000005,224.9998,337.94410000000005,224.9998 M365.3038,200.0 L387.1884,200.0 M387.1884,200.0 C400.9,200.0,400.8384,175.0002,414.5481,175.0002 M387.1884,200.0 C400.9,200.0,400.8384,224.9998,414.5481,224.9998 M325.0,175.0 L338.0,175.0 M338.0019,224.9998 L325.0,224.9998 M412.6453,224.9998 L425.0,224.9998 M412.1944,174.9998 L425.0,174.9998" stroke-width="1" stroke="black" stroke-linejoin="miter" fill="none" />
<text x="375" y="188" font-size="7" text-anchor="middle" dy="0em"></text>
<path d="M397,203 L407,203 L407,213 L397,213 Z" stroke="black" fill="thistle" stroke-linejoin="miter" />
<text x="402" y="210" font-size="6" text-anchor="middle" dy="0em">Rx</text>
<path d="M125,25 L425,25" stroke="black" stroke-width="1" fill="none" />
<path d="M225,75 L425,75" stroke="black" stroke-width="1" fill="none" />
<path d="M325,125 L425,125" stroke="black" stroke-width="1" fill="none" />
<path d="M425,25 L440,25" stroke-width="1" stroke="black" stroke-linejoin="miter" fill="none" />
<path d="M425,75 L440,75" stroke-width="1" stroke="black" stroke-linejoin="miter" fill="none" />
<path d="M425,125 L440,125" stroke-width="1" stroke="black" stroke-linejoin="miter" fill="none" />
<path d="M425,175 L440,175" stroke-width="1" stroke="black" stroke-linejoin="miter" fill="none" />
<path d="M425,225 L440,225" stroke-width="1" stroke="black" stroke-linejoin="miter" fill="none" />
<text x="450" y="28" font-size="6" text-anchor="end" dy="0em">0</text>
<text x="450" y="78" font-size="6" text-anchor="end" dy="0em">1</text>
<text x="450" y="128" font-size="6" text-anchor="end" dy="0em">2</text>
<text x="450" y="178" font-size="6" text-anchor="end" dy="0em">3</text>
<text x="450" y="228" font-size="6" text-anchor="end" dy="0em">4</text>
<text x="0" y="28" font-size="6" text-anchor="start" dy="0em">0</text>
<text x="0" y="78" font-size="6" text-anchor="start" dy="0em">1</text>
<text x="0" y="128" font-size="6" text-anchor="start" dy="0em">2</text>
<text x="0" y="178" font-size="6" text-anchor="start" dy="0em">3</text>
<text x="0" y="228" font-size="6" text-anchor="start" dy="0em">4</text>
</svg>