<?xml version="1.0" encoding="UTF-8"?>
<svg xmlns="http://www.w3.org/2000/svg" xmlns:xlink="http://www.w3.org/1999/xlink"
     width="437.5" height="750.0" viewBox="-35.0 0 350 600">
<defs>
</defs>
<path d="M10,25 L25,25" stroke-width="1" stroke="black" stroke-linejoin="miter" fill="none" />
<path d="M10,75 L25,75" stroke-width="1" stroke="black" stroke-linejoin="miter" fill="none" />
<path d="M10,125 L25,125" stroke-width="1" stroke="black" stroke-linejoin="miter" fill="none" />
<path d="M10,175 L25,175" stroke-width="1" stroke="black" stroke-linejoin="miter" fill="none" />
<path d="M10,225 L25,225" stroke-width="1" stroke="black" stroke-linejoin="miter" fill="none" />
<path d="M10,275 L25,275" stroke-width="1" stroke="black" stroke-linejoin="miter" fill="none" />
<path d="M10,325 L25,325" stroke-width="1" stroke="black" stroke-linejoin="miter" fill="none" />
<path d="M10,375 L25,375" stroke-width="1" stroke="black" stroke-linejoin="miter" fill="none" />
<path d="M10,425 L25,425" stroke-width="1" stroke="black" stroke-linejoin="miter" fill="none" />
<path d="M10,475 L25,475" stroke-width="1" stroke="black" stroke-linejoin="miter" fill="none" />
<path d="M10,525 L25,525" stroke-width="1" stroke="black" stroke-linejoin="miter" fill="none" />
<path d="M37.9442,275.0002 C51.653800000000004,275.0002,51.5923,300.0,65.3019,300.0 M65.3038,300.0 C51.59219999999999,300.0,51.6538,324.9998,37.94409999999999,324.9998 M65.3038,300.0 L87.1884,300.0 M87.1884,300.0 C100.9,300.0,100.83840000000001,275.0002,114.5481,275.0002 M87.1884,300.0 C100.9,300.0,100.83840000000001,324.9998,114.5481,324.9998 M25.0,275.0 L38.0,275.0 M38.0019,324.9998 L25.0,324.9998 M112.6453,324.9998 L125.0,324.9998 M112.1944,274.9998 L125.0,274.9998" stroke-width="1" stroke="black" stroke-linejoin="miter" fill="none" />
<text x="75" y="288" font-size="7" text-anchor="middle" dy="0em"></text>
<path d="M97,303 L107,303 L107,313 L97,313 Z" stroke="black" fill="thistle" stroke-linejoin="miter" />
<text x="102" y="310" font-size="6" text-anchor="middle" dy="0em">Rx</text>
<path d="M25,225 L125,225" stroke="black" stroke-width="1" fill="none" />
<path d="M125,224.8 C145,225,155,275,175,275" stroke-width="2" stroke="white" stroke-linejoin="miter" fill="none" />
<path d="M125,225 C145,225,155,275,175,275" stroke-width="1" stroke="black" stroke-linejoin="miter" fill="none" />
<path d="M125,274.8 C145,275,155,225,175,225" stroke-width="2" stroke="white" stroke-linejoin="miter" fill="none" />
<path d="M125,275 C145,275,155,225,175,225" stroke-width="1" stroke="black" stroke-linejoin="miter" fill="none" />
<path d="M25,175 L175,175" stroke="black" stroke-width="1" fill="none" />
<path d="M175,174.8 C195,175,205,225,225,225" stroke-width="2" stroke="white" stroke-linejoin="miter" fill="none" />
<path d="M175,175 C195,175,205,225,225,225" stroke-width="1" stroke="black" stroke-linejoin="miter" fill="none" />
<path d="M175,224.8 C195,225,205,175,225,175" stroke-width="2" stroke="white" stroke-linejoin="miter" fill="none" />
<path d="M175,225 C195,225,205,175,225,175" stroke-width="1" stroke="black" stroke-linejoin="miter" fill="none" />
<path d="M25,375 L125,375" stroke="black" stroke-width="1" fill="none" />
<path d="M125,324.8 C145,325,155,375,175,375" stroke-width="2" stroke="white" stroke-linejoin="miter" fill="none" />
<path d="M125,325 C145,325,155,375,175,375" stroke-width="1" stroke="black" stroke-linejoin="miter" fill="none" />
<path d="M125,374.8 C145,375,155,325,175,325" stroke-width="2" stroke="white" stroke-linejoin="miter" fill="none" />
<path d="M125,375 C145,375,155,325,175,325" stroke-width="1" stroke="black" stroke-linejoin="miter" fill="none" />
<path d="M25,25 L225,25" stroke="black" stroke-width="1" fill="none" />
<path d="M25,75 L225,75" stroke="black" stroke-width="1" fill="none" />
<path d="M25,125 L225,125" stroke="black" stroke-width="1" fill="none" />
<path d="M175,275 L225,275" stroke="black" stroke-width="1" fill="none" />
<path d="M175,325 L225,325" stroke="black" stroke-width="1" fill="none" />
<path d="M175,375 L225,375" stroke="black" stroke-width="1" fill="none" />
<path d="M25,425 L225,425" stroke="black" stroke-width="1" fill="none" />
<path d="M25,475 L225,475" stroke="black" stroke-width="1" fill="none" />
<path d="M25,525 L225,525" stroke="black" stroke-width="1" fill="none" />
<path d="M225,25 L240,25" stroke-width="1" stroke="black" stroke-linejoin="miter" fill="none" />
<path d="M225,75 L240,75" stroke-width="1" stroke="black" stroke-linejoin="miter" fill="none" />
<path d="M225,125 L240,125" stroke-width="1" stroke="black" stroke-linejoin="miter" fill="none" />
<path d="M225,175 L240,175" stroke-width="1" stroke="black" stroke-linejoin="miter" fill="none" />
<path d="M225,225 L240,225" stroke-width="1" stroke="black" stroke-linejoin="miter" fill="none" />
<path d="M225,275 L240,275" stroke-width="1" stroke="black" stroke-linejoin="miter" fill="none" />
<path d="M225,325 L240,325" stroke-width="1" stroke="black" stroke-linejoin="miter" fill="none" />
<path d="M225,375 L240,375" stroke-width="1" stroke="black" stroke-linejoin="miter" fill="none" />
<path d="M225,425 L240,425" stroke-width="1" stroke="black" stroke-linejoin="miter" fill="none" />
<path d="M225,475 L240,475" stroke-width="1" stroke="black" stroke-linejoin="miter" fill="none" />
<path d="M225,525 L240,525" stroke-width="1" stroke="black" stroke-linejoin="miter" fill="none" />
<text x="250" y="28" font-size="10" text-anchor="end" dy="0em">0</text>
<text x="250" y="78" font-size="10" text-anchor="end" dy="0em">1</text>
<text x="250" y="128" font-size="10" text-anchor="end" dy="0em">2</text>
<text x="250" y="178" font-size="10" text-anchor="end" dy="0em">3</text>
<text x="250" y="228" font-size="10" text-anchor="end" dy="0em">4</text>
<text x="250" y="278" font-size="10" text-anchor="end" dy="0em">5</text>
<text x="250" y="328" font-size="10" text-anchor="end" dy="0em">6</text>
<text x="250" y="378" font-size="10" text-anchor="end" dy="0em">7</text>
<text x="250" y="428" font-size="10" text-anchor="end" dy="0em">8</text>
<text x="250" y="478" font-size="10" text-anchor="end" dy="0em">9</text>
<text x="250" y="528" font-size="10" text-anchor="end" dy="0em">10</text>
<text x="0" y="28" font-size="10" text-anchor="start" dy="0em">0</text>
<text x="0" y="78" font-size="10" text-anchor="start" dy="0em">1</text>
<text x="0" y="128" font-size="10" text-anchor="start" dy="0em">2</text>
<text x="0" y="178" font-size="10" text-anchor="start" dy="0em">3</text>
<text x="0" y="228" font-size="10" text-anchor="start" dy="0em">4</text>
<text x="0" y="278" font-size="10" text-anchor="start" dy="0em">5</text>
<text x="0" y="328" font-size="10" text-anchor="start" dy="0em">6</text>
<text x="0" y="378" font-size="10" text-anchor="start" dy="0em">7</text>
<text x="0" y="428" font-size="10" text-anchor="start" dy="0em">8</text>
<text x="0" y="478" font-size="10" text-anchor="start" dy="0em">9</text>
<text x="0" y="528" font-size="10" text-anchor="start" dy="0em">10</text>
</svg>