<?xml version="1.0" encoding="UTF-8"?>
<svg xmlns="http://www.w3.org/2000/svg" xmlns:xlink="http://www.w3.org/1999/xlink"
     width="312.5" height="187.5" viewBox="-28.0 0 250 150">
<defs>
</defs>
<path d="M10,25 L25,25" stroke-width="1" stroke="black" stroke-linejoin="miter" fill="none" />
<path d="M10,75 L25,75" stroke-width="1" stroke="black" stroke-linejoin="miter" fill="none" />
<path d="M37.9442,25.0002 C51.653800000000004,25.0002,51.5923,50.0,65.3019,50.0 M65.3038,50.0 C51.59219999999999,50.0,51.6538,74.9998,37.94409999999999,74.9998 M65.3038,49.99999999999999 L87.1884,49.99999999999999 M87.1884,49.99999999999999 C100.9,49.99999999999999,100.83840000000001,25.000199999999992,114.5481,25.000199999999992 M87.1884,49.99999999999999 C100.9,49.99999999999999,100.83840000000001,74.9998,114.5481,74.9998 M25.0,24.999999999999993 L38.0,24.999999999999993 M38.0019,74.9998 L25.0,74.9998 M112.6453,74.9998 L125.0,74.9998 M112.1944,24.999799999999993 L125.0,24.999799999999993" stroke-width="1" stroke="black" stroke-linejoin="miter" fill="none" />
<text x="75" y="38" font-size="7" text-anchor="middle" dy="0em">Θ=2.498092</text>
<path d="M97,53 L107,53 L107,63 L97,63 Z" stroke="black" fill="thistle" stroke-linejoin="miter" />
<text x="102" y="60" font-size="6" text-anchor="middle" dy="0em">Rx</text>
<path d="M125,25 L140,25" stroke-width="1" stroke="black" stroke-linejoin="miter" fill="none" />
<path d="M125,75 L140,75" stroke-width="1" stroke="black" stroke-linejoin="miter" fill="none" />
<text x="150" y="28" font-size="6" text-anchor="end" dy="0em">0</text>
<text x="150" y="78" font-size="6" text-anchor="end" dy="0em">1</text>
<text x="0" y="28" font-size="6" text-anchor="start" dy="0em">0</text>
<text x="0" y="78" font-size="6" text-anchor="start" dy="0em">1</text>
</svg>